# xmcd
# 
# Track frame offsets:
#     150
#     11982
#     30527
#     42827
#     55547
#     67780
#     79165
#     90870
#     103300
#     120355
# 
# Disc length: 1844
# 
# Revision: 6
# Processed by: cddbd v1.5.2PL0 Copyright (c) Steve Scherf et al.
# Submitted via: fre:ac v1.1beta1pre3
# 
DISCID=6d07320a
DTITLE=Johnny Cash - Super Hits
DYEAR=1994
DGENRE=Country
TTITLE0=Ring of Fire
TTITLE1=Sunday Mornin' Comin' Down
TTITLE2=I Walk the Line
TTITLE3=Folsom Prison Blues
TTITLE4=Understand Your Man
TTITLE5=Big River
TTITLE6=I Still Miss Someone
TTITLE7=Jackson
TTITLE8=A Boy Named Sue
TTITLE9=One Piece at a Time
EXTD=Columbia CK 66773
EXTT0=June Carter - Merle Kilgore
EXTT1=Kris Kristofferson
EXTT2=John R. Cash
EXTT3=John R. Cash
EXTT4=John R. Cash
EXTT5=John R. Cash
EXTT6=John R. Cash - Roy Cash
EXTT7=Gaby Rodgers - Billy Ed Wheeler\nwith June Carter
EXTT8=Shel Silverstein
EXTT9=Wayne King
PLAYORDER=
